# xmcd
#
# Track frame offsets:
#	150
#	18404
#	39532
#	61481
#	79222
#	99620
#	120071
#	138010
#	156239
#	171613
#	188794
#	208473
#
# Disc length: 3025 seconds
#
# Revision: 0
# Processed by: cddbd v1.5.2PL0 Copyright (c) Steve Scherf et al.
# Submitted via: audiograbber 1.83.01
#
DISCID=a40bcf0c
DTITLE=Tim McGraw - Number One Hits - CD 2
DYEAR=2010
DGENRE=Country
TTITLE0=Southern Voice
TTITLE1=My Best Friend
TTITLE2=Everywhere
TTITLE3=Grown Men Don't Cry
TTITLE4=Back When
TTITLE5=Angry All The Time
TTITLE6=Last Dollar (Fly Away)
TTITLE7=Unbroken
TTITLE8=Where The Green Grass Grows
TTITLE9=Not A Moment Too Soon
TTITLE10=Indian Outlaw (Dance Mix)
TTITLE11=Felt Good On My Lips
EXTD=
EXTT0=
EXTT1=
EXTT2=
EXTT3=
EXTT4=
EXTT5=
EXTT6=
EXTT7=
EXTT8=
EXTT9=
EXTT10=
EXTT11=
PLAYORDER=
